<svg aria-hidden="true" style="width:0;height:0;position:absolute;overflow:hidden" xmlns="http://www.w3.org/2000/svg"><defs><symbol id="icon-moon" viewBox="0 0 32 32"><path d="M24.821 23.268q-.964.161-1.964.161-3.25 0-6.018-1.607t-4.375-4.375-1.607-6.018q0-3.429 1.857-6.375-3.589 1.071-5.866 4.089T4.571 16q0 2.321.911 4.438t2.438 3.643 3.643 2.438 4.438.911q2.571 0 4.884-1.098t3.938-3.063zm3.625-1.518q-1.679 3.625-5.063 5.795t-7.384 2.17q-2.786 0-5.321-1.089t-4.375-2.929-2.929-4.375-1.089-5.321q0-2.732 1.027-5.223t2.786-4.313 4.205-2.938 5.179-1.223q.786-.036 1.089.696.321.732-.268 1.286-1.536 1.393-2.348 3.241t-.813 3.902q0 2.643 1.304 4.875t3.536 3.536 4.875 1.304q2.107 0 4.071-.911.732-.321 1.286.232.25.25.313.607t-.08.679z"/></symbol><symbol id="icon-sun" viewBox="0 0 32 32"><path d="M16 9c-3.859 0-7 3.141-7 7s3.141 7 7 7 7-3.141 7-7-3.141-7-7-7zm0 12c-2.762 0-5-2.238-5-5s2.238-5 5-5 5 2.238 5 5-2.238 5-5 5zm0-14a1 1 0 0 0 1-1V4a1 1 0 0 0-2 0v2a1 1 0 0 0 1 1zm0 18a1 1 0 0 0-1 1v2a1 1 0 0 0 2 0v-2a1 1 0 0 0-1-1zm7.777-15.365 1.414-1.414a.999.999 0 1 0-1.414-1.414l-1.414 1.414a.999.999 0 1 0 1.414 1.414zM8.223 22.365l-1.414 1.414a.999.999 0 1 0 1.414 1.414l1.414-1.414a.999.999 0 1 0-1.414-1.414zM7 16a1 1 0 0 0-1-1H4a1 1 0 0 0 0 2h2a1 1 0 0 0 1-1zm21-1h-2a1 1 0 0 0 0 2h2a1 1 0 0 0 0-2zM8.221 9.635a.999.999 0 1 0 1.414-1.414L8.221 6.807a.999.999 0 1 0-1.414 1.414l1.414 1.414zm15.558 12.728a.999.999 0 1 0-1.414 1.414l1.414 1.414a.999.999 0 1 0 1.414-1.414l-1.414-1.414z"/></symbol><symbol id="icon-heart-button" viewBox="0 0 32 32"><path stroke-linejoin="round" stroke-linecap="round" stroke-width="1.778" d="M27.787 6.146a7.345 7.345 0 0 0-5.187-2.15 7.33 7.33 0 0 0-5.187 2.15L16 7.559l-1.413-1.413a7.333 7.333 0 0 0-10.374 0 7.333 7.333 0 0 0 0 10.374L16 28.307 27.787 16.52a7.345 7.345 0 0 0 2.15-5.187 7.33 7.33 0 0 0-2.15-5.187z"/></symbol><symbol id="icon-heart-filled" viewBox="0 0 32 32"><path d="M9.333 4c-3.681 0-6.667 2.955-6.667 6.6 0 2.943 1.167 9.927 12.651 16.987a1.316 1.316 0 0 0 1.366 0c11.484-7.06 12.651-14.044 12.651-16.987 0-3.645-2.985-6.6-6.667-6.6S16 8 16 8s-2.985-4-6.667-4z"/></symbol><symbol id="icon-heart-bordered" viewBox="0 0 32 32"><path stroke-linejoin="round" stroke-linecap="round" stroke-width="2" d="M9.333 4c-3.681 0-6.667 2.955-6.667 6.6 0 2.943 1.167 9.927 12.651 16.987a1.316 1.316 0 0 0 1.366 0c11.484-7.06 12.651-14.044 12.651-16.987 0-3.645-2.985-6.6-6.667-6.6S16 8 16 8s-2.985-4-6.667-4z"/></symbol><symbol id="icon-arrow-up" viewBox="0 0 32 32"><path d="M3.76 25.143 0 21.664 16 6.858l16 14.806-3.76 3.479L16 13.841 3.76 25.143z"/></symbol><symbol id="icon-arrow-down" viewBox="0 0 32 32"><path d="M3.76 9.143 0 12.622l16 14.806 16-14.806-3.76-3.479L16 20.445 3.76 9.143z"/></symbol><symbol id="icon-calendar" viewBox="0 0 32 32"><path d="M22.667 4H28a1.335 1.335 0 0 1 1.334 1.334v21.333A1.335 1.335 0 0 1 28 28.001H4a1.33 1.33 0 0 1-1.333-1.334V5.334A1.333 1.333 0 0 1 4 4h5.333V1.333H12V4h8V1.333h2.667V4zm4 10.667H5.334v10.667h21.333V14.667zm-6.667-8h-8v2.667H9.333V6.667h-4V12h21.333V6.667h-4v2.667h-2.667V6.667zM8 17.333h2.667V20H8v-2.667zm6.667 0h2.667V20h-2.667v-2.667zm6.666 0H24V20h-2.667v-2.667z"/></symbol><symbol id="icon-search" viewBox="0 0 32 32"><path d="M13.333 23.6c2.367 0 4.665-.753 6.529-2.138l5.861 5.568 1.885-1.791-5.861-5.568a9.755 9.755 0 0 0 2.252-6.204c0-5.587-4.785-10.133-10.667-10.133S2.665 7.88 2.665 13.467c0 5.587 4.785 10.133 10.667 10.133zm0-17.733c4.412 0 8 3.409 8 7.6s-3.588 7.6-8 7.6-8-3.409-8-7.6 3.588-7.6 8-7.6z"/></symbol><symbol id="icon-menu" viewBox="0 0 32 32"><path d="M6.4 11.734V9.6h19.2v2.134H6.4zm0 5.332h19.2v-2.133H6.4v2.133zm0 5.334h19.2v-2.134H6.4V22.4z"/></symbol><symbol id="icon-arrow-right" viewBox="0 0 16 32"><path d="M16 16a2.309 2.309 0 0 0-.643-1.567L3.165 1.468c-.36-.375-.784-.579-1.301-.579-1.05 0-1.865.886-1.865 2.027 0 .545.204 1.056.564 1.448L11.533 16 .563 27.636a2.1 2.1 0 0 0-.564 1.448c0 1.142.815 2.027 1.865 2.027.501 0 .94-.204 1.301-.579L15.357 17.55c.439-.443.642-.954.642-1.55z"/></symbol><symbol id="icon-arrow-left" viewBox="0 0 16 32"><path d="M0 16c0 .596.204 1.107.642 1.55l12.192 12.982c.345.375.784.579 1.301.579 1.034 0 1.865-.886 1.865-2.027 0-.562-.219-1.056-.564-1.448L4.451 16 15.436 4.364c.345-.392.564-.903.564-1.448 0-1.141-.831-2.027-1.865-2.027-.517 0-.956.204-1.301.579L.642 14.433C.203 14.893 0 15.404 0 16z"/></symbol><symbol id="icon-mobile-menu-1" viewBox="0 0 32 32"><path d="M31.439 3.166 28.273 0 15.719 12.552 3.167 0 .001 3.166l12.552 12.552L.001 28.272l3.166 3.166 12.552-12.554 12.554 12.554 3.166-3.166-12.554-12.554L31.439 3.166z"/></symbol><symbol id="icon-home" viewBox="0 0 32 32"><path fill="none" stroke="#f4f4f4" style="stroke:var(--color1,#f4f4f4)" stroke-linejoin="round" stroke-linecap="round" stroke-width="1.778" d="m4 12 12-9.333L28 12v14.667a2.668 2.668 0 0 1-2.667 2.667H6.666a2.668 2.668 0 0 1-2.667-2.667V12z"/><path fill="none" stroke="#f4f4f4" style="stroke:var(--color1,#f4f4f4)" stroke-linejoin="round" stroke-linecap="round" stroke-width="1.778" d="M12 29.333V16h8v13.333"/></symbol><symbol id="icon-heart" viewBox="0 0 36 32"><path fill="none" stroke="#f4f4f4" style="stroke:var(--color1,#f4f4f4)" stroke-linejoin="round" stroke-linecap="round" stroke-width="2" d="M31.261 4.915a8.244 8.244 0 0 0-5.835-2.417 8.264 8.264 0 0 0-5.835 2.417l-1.59 1.59-1.59-1.59a8.25 8.25 0 0 0-11.67 0 8.25 8.25 0 0 0 0 11.67l13.26 13.26 13.26-13.26a8.26 8.26 0 0 0 2.417-5.835 8.245 8.245 0 0 0-2.417-5.835v0z"/></symbol><symbol id="icon-book" viewBox="0 0 32 32"><path fill="none" stroke="#f4f4f4" style="stroke:var(--color1,#f4f4f4)" stroke-linejoin="round" stroke-linecap="round" stroke-width="1.778" d="M2.667 4h8A5.332 5.332 0 0 1 16 9.333V28a4.003 4.003 0 0 0-4-4H2.667V4z"/><path fill="none" stroke="#f4f4f4" style="stroke:var(--color1,#f4f4f4)" stroke-linejoin="round" stroke-linecap="round" stroke-width="1.778" d="M29.333 4h-8A5.334 5.334 0 0 0 16 9.333V28a4.003 4.003 0 0 1 4-4h9.333V4z"/></symbol><symbol id="icon-arrow" viewBox="0 0 18 32"><path fill="none" stroke="#fff" style="stroke:var(--color1,#fff)" stroke-linejoin="round" stroke-linecap="round" stroke-width="4.571" d="M2.286 29.714 16 16 2.286 2.286"/></symbol><symbol id="icon-arrow-with-circle-up" viewBox="0 0 20 20"><path d="M10 .4C4.697.4.399 4.698.399 10A9.6 9.6 0 0 0 10 19.601c5.301 0 9.6-4.298 9.6-9.601S15.301.4 10 .4zm-.001 17.2a7.6 7.6 0 1 1 0-15.2 7.6 7.6 0 1 1 0 15.2zM10 5.5l4.5 4.5H12v4H8v-4H5.5L10 5.5z"/></symbol><symbol id="icon-carbon_location-filled" viewBox="0 0 32 32"><path fill="#fff" style="fill:var(--color1,#fff)" d="M16 2A11.018 11.018 0 0 0 5 13a10.892 10.892 0 0 0 2.216 6.6s.3.395.349.452L16 30l8.439-9.953c.044-.053.345-.447.345-.447l.001-.003A10.89 10.89 0 0 0 27 13 11.018 11.018 0 0 0 16 2zm0 15a4.002 4.002 0 0 1-3.923-4.78 4.006 4.006 0 0 1 3.143-3.143 3.996 3.996 0 0 1 3.607 6.75A4.004 4.004 0 0 1 16 17z"/></symbol><symbol id="icon-icons8--1" viewBox="0 0 32 32"><path fill="#00dd73" style="fill:var(--color1,#00dd73)" d="M28.779 6.39c-.277.008-.54.124-.733.323L11.734 23.026l-6.713-6.713a1.065 1.065 0 1 0-1.508 1.507l7.467 7.467a1.066 1.066 0 0 0 1.508 0L29.555 8.22a1.072 1.072 0 0 0 .239-1.18 1.066 1.066 0 0 0-1.014-.65z"/></symbol><symbol id="icon-Vector" viewBox="0 0 37 32"><path stroke="#4440f7" style="stroke:var(--color1,#4440f7)" stroke-linejoin="round" stroke-linecap="round" stroke-width="2.286" d="M10.666 2.286c-4.207 0-7.619 3.377-7.619 7.543 0 3.363 1.333 11.345 14.458 19.413a1.501 1.501 0 0 0 1.56 0c13.125-8.069 14.458-16.05 14.458-19.413 0-4.166-3.412-7.543-7.619-7.543s-7.619 4.571-7.619 4.571-3.412-4.571-7.619-4.571z"/></symbol><symbol id="icon-car" viewBox="0 0 32 32"><path d="M21.98 19.256h-8.362a2.556 2.556 0 0 1-2.181-1.235l-.908-1.514a.501.501 0 0 1 .859-.515l.908 1.514a1.55 1.55 0 0 0 1.321.748h8.362a.5.5 0 1 1 0 1.002z"/><path d="M.438 20.263v-1.507a5.517 5.517 0 0 1 5.511-5.511h2.768c.776-.61 3.937-3.006 5.748-3.006h3.382a6.775 6.775 0 0 1 2.067.323l4.615 1.858a7.212 7.212 0 0 0 2.139.323h1.657a.483.483 0 0 1 .096-.135l.487-.487a1.507 1.507 0 0 1-.915-1.385v-.498a.5.5 0 0 1 .501-.501H31.5a.5.5 0 0 1 .501.501v.498c0 .83-.675 1.506-1.506 1.506h-.291l-.501.501h.419c.76 0 1.378.618 1.378 1.378v4.133c0 1.159-.833 2.135-2.122 2.487a3.504 3.504 0 0 1-5.339.519H8.401a3.497 3.497 0 0 1-4.902 0H.502a.5.5 0 0 1-.063-.998zm30.56-9.523h-2.004a.504.504 0 0 0 .504.501h.996a.504.504 0 0 0 .504-.501zm-21.31 3.022c.224.157.39.323.505.46l9.455-.906c-.442-.793-1.361-2.075-2.677-2.075h-2.505c-1.183 0-3.527 1.58-4.777 2.521zm20.809 4.492v-4.133a.377.377 0 0 0-.376-.376h-3.454a8.216 8.216 0 0 1-2.494-.388l-4.599-1.852c.125.134.248.277.366.432.614.799.927 1.592.94 1.626a.503.503 0 0 1-.419.681l-10.458 1.002a.48.48 0 0 1-.487-.257c-.035-.059-.466-.742-1.565-.742H5.947a4.514 4.514 0 0 0-4.509 4.509v1.503h1.341a3.51 3.51 0 0 1 3.168-5.01 3.51 3.51 0 0 1 3.168 5.01h14.204a3.51 3.51 0 0 1 3.168-5.01 3.51 3.51 0 0 1 3.453 4.115c.353-.288.555-.675.555-1.109zm-1.503.501c0-1.381-1.124-2.505-2.505-2.505s-2.505 1.124-2.505 2.505 1.124 2.505 2.505 2.505 2.505-1.124 2.505-2.505zM5.949 21.26c1.381 0 2.505-1.124 2.505-2.505S7.33 16.25 5.949 16.25s-2.505 1.124-2.505 2.505 1.124 2.505 2.505 2.505z"/><path d="M24.986 18.254a.5.5 0 0 1 .501.501c0 .552.45 1.002 1.002 1.002s1.002-.45 1.002-1.002-.45-1.002-1.002-1.002a.5.5 0 1 1 0-1.002c1.105 0 2.004.899 2.004 2.004s-.899 2.004-2.004 2.004-2.004-.899-2.004-2.004a.5.5 0 0 1 .501-.501zM4.446 18.254a.5.5 0 0 1 .501.501 1.003 1.003 0 0 0 2.004 0c0-.552-.45-1.002-1.002-1.002a.5.5 0 1 1 0-1.002c1.105 0 2.004.899 2.004 2.004s-.899 2.004-2.004 2.004-2.004-.899-2.004-2.004a.5.5 0 0 1 .501-.501z"/></symbol><symbol id="icon-arrow-pg" viewBox="0 0 32 32"><path d="m14.437 16 6.6 6.6-1.885 1.885L10.667 16l8.485-8.485L21.037 9.4l-6.6 6.6z"/></symbol><symbol id="icon-email-black" viewBox="0 0 32 32"><path d="M26.667 5.333H5.334A2.662 2.662 0 0 0 2.682 8l-.014 16c0 1.467 1.2 2.667 2.667 2.667h21.333c1.467 0 2.667-1.2 2.667-2.667V8c0-1.467-1.2-2.667-2.667-2.667zm-.534 5.668-9.426 5.892a1.343 1.343 0 0 1-1.421-.004l.006.003L5.866 11A1.133 1.133 0 1 1 7.07 9.083l-.004-.003 8.933 5.586 8.933-5.588a1.132 1.132 0 1 1 1.204 1.916l-.005.003z"/></symbol><symbol id="icon-close-black" viewBox="0 0 32 32"><path d="m26.667 7.303-1.97-1.97-7.808 7.808-7.808-7.808-1.97 1.97 7.808 7.808-7.808 7.808 1.97 1.97 7.808-7.808 7.808 7.808 1.97-1.97-7.808-7.808 7.808-7.808z"/></symbol><symbol id="icon-key" viewBox="0 0 32 32"><path d="M22 0c-5.523 0-10 4.477-10 10 0 .626.058 1.238.168 1.832L0 24v6a2 2 0 0 0 2 2h2v-2h4v-4h4v-4h4l2.595-2.595A9.977 9.977 0 0 0 22 20c5.523 0 10-4.477 10-10S27.523 0 22 0zm2.996 10.004a3 3 0 1 1 0-6 3 3 0 0 1 0 6z"/></symbol><symbol id="icon-person" viewBox="0 0 32 32"><path d="M16 16a5.333 5.333 0 1 0 0-10.666A5.333 5.333 0 1 0 16 16zm0 2.667c-3.561 0-10.667 1.787-10.667 5.333v1.333c0 .732.599 1.333 1.333 1.333h18.667c.732 0 1.333-.601 1.333-1.333V24c0-3.547-7.108-5.333-10.667-5.333z"/></symbol></defs></svg>