<svg aria-hidden="true" style="position:absolute;width:0;height:0;overflow:hidden" xmlns="http://www.w3.org/2000/svg">
  <defs>
    <symbol id="icon-moon" viewBox="0 0 32 32">
    <path d="M24.821 23.268q-0.964 0.161-1.964 0.161-3.25 0-6.018-1.607t-4.375-4.375-1.607-6.018q0-3.429 1.857-6.375-3.589 1.071-5.866 4.089t-2.277 6.857q0 2.321 0.911 4.438t2.438 3.643 3.643 2.438 4.438 0.911q2.571 0 4.884-1.098t3.938-3.063zM28.446 21.75q-1.679 3.625-5.063 5.795t-7.384 2.17q-2.786 0-5.321-1.089t-4.375-2.929-2.929-4.375-1.089-5.321q0-2.732 1.027-5.223t2.786-4.313 4.205-2.938 5.179-1.223q0.786-0.036 1.089 0.696 0.321 0.732-0.268 1.286-1.536 1.393-2.348 3.241t-0.813 3.902q0 2.643 1.304 4.875t3.536 3.536 4.875 1.304q2.107 0 4.071-0.911 0.732-0.321 1.286 0.232 0.25 0.25 0.313 0.607t-0.080 0.679z"></path>
    </symbol>
    <symbol id="icon-sun" viewBox="0 0 32 32">
      <path d="M16 9c-3.859 0-7 3.141-7 7s3.141 7 7 7 7-3.141 7-7-3.141-7-7-7zM16 21c-2.762 0-5-2.238-5-5s2.238-5 5-5c2.762 0 5 2.238 5 5s-2.238 5-5 5zM16 7c0.552 0 1-0.448 1-1v-2c0-0.552-0.448-1-1-1s-1 0.448-1 1v2c0 0.552 0.448 1 1 1zM16 25c-0.552 0-1 0.448-1 1v2c0 0.552 0.448 1 1 1s1-0.448 1-1v-2c0-0.552-0.448-1-1-1zM23.777 9.635l1.414-1.414c0.391-0.391 0.391-1.023 0-1.414s-1.023-0.391-1.414 0l-1.414 1.414c-0.391 0.391-0.391 1.023 0 1.414s1.023 0.391 1.414 0zM8.223 22.365l-1.414 1.414c-0.391 0.391-0.391 1.023 0 1.414s1.023 0.391 1.414 0l1.414-1.414c0.391-0.392 0.391-1.023 0-1.414s-1.023-0.392-1.414 0zM7 16c0-0.552-0.448-1-1-1h-2c-0.552 0-1 0.448-1 1s0.448 1 1 1h2c0.552 0 1-0.448 1-1zM28 15h-2c-0.552 0-1 0.448-1 1s0.448 1 1 1h2c0.552 0 1-0.448 1-1s-0.448-1-1-1zM8.221 9.635c0.391 0.391 1.024 0.391 1.414 0s0.391-1.023 0-1.414l-1.414-1.414c-0.391-0.391-1.023-0.391-1.414 0s-0.391 1.023 0 1.414l1.414 1.414zM23.779 22.363c-0.392-0.391-1.023-0.391-1.414 0s-0.392 1.023 0 1.414l1.414 1.414c0.391 0.391 1.023 0.391 1.414 0s0.391-1.023 0-1.414l-1.414-1.414z"></path>
    </symbol>
    <symbol id="icon-heart-button" viewBox="0 0 32 32">
      <path stroke-linejoin="round" stroke-linecap="round" stroke-width="1.778" d="M27.787 6.146a7.345 7.345 0 0 0-5.187-2.15 7.33 7.33 0 0 0-5.187 2.15L16 7.559l-1.413-1.413a7.333 7.333 0 0 0-10.374 0 7.333 7.333 0 0 0 0 10.374L16 28.307 27.787 16.52a7.345 7.345 0 0 0 2.15-5.187 7.33 7.33 0 0 0-2.15-5.187z"/>
    </symbol>
    <symbol id="icon-heart-filled" viewBox="0 0 32 32">
      <path d="M9.333 4c-3.681 0-6.667 2.955-6.667 6.6 0 2.943 1.167 9.927 12.651 16.987a1.316 1.316 0 0 0 1.366 0c11.484-7.06 12.651-14.044 12.651-16.987 0-3.645-2.985-6.6-6.667-6.6S16 8 16 8s-2.985-4-6.667-4z"/>
    </symbol>
    <symbol id="icon-heart-bordered" viewBox="0 0 32 32">
      <path stroke-linejoin="round" stroke-linecap="round" stroke-width="2" d="M9.333 4c-3.681 0-6.667 2.955-6.667 6.6 0 2.943 1.167 9.927 12.651 16.987a1.316 1.316 0 0 0 1.366 0c11.484-7.06 12.651-14.044 12.651-16.987 0-3.645-2.985-6.6-6.667-6.6S16 8 16 8s-2.985-4-6.667-4z"/>
    </symbol>
    <symbol id="icon-arrow-up" viewBox="0 0 32 32">
      <path d="M3.76 25.143 0 21.664 16 6.858l16 14.806-3.76 3.479L16 13.841 3.76 25.143z"/>
    </symbol>
    <symbol id="icon-arrow-down" viewBox="0 0 32 32">
      <path d="M3.76 9.143 0 12.622l16 14.806 16-14.806-3.76-3.479L16 20.445 3.76 9.143z"/>
    </symbol>
    <symbol id="icon-calendar" viewBox="0 0 32 32">
      <path d="M22.667 4H28a1.335 1.335 0 0 1 1.334 1.334v21.333A1.335 1.335 0 0 1 28 28.001H4a1.33 1.33 0 0 1-1.333-1.334V5.334A1.333 1.333 0 0 1 4 4h5.333V1.333H12V4h8V1.333h2.667V4zm4 10.667H5.334v10.667h21.333V14.667zm-6.667-8h-8v2.667H9.333V6.667h-4V12h21.333V6.667h-4v2.667h-2.667V6.667zM8 17.333h2.667V20H8v-2.667zm6.667 0h2.667V20h-2.667v-2.667zm6.666 0H24V20h-2.667v-2.667z"/>
    </symbol>
    <symbol id="icon-search" viewBox="0 0 32 32">
      <path d="M13.333 23.6c2.367 0 4.665-.753 6.529-2.138l5.861 5.568 1.885-1.791-5.861-5.568a9.755 9.755 0 0 0 2.252-6.204c0-5.587-4.785-10.133-10.667-10.133S2.665 7.88 2.665 13.467c0 5.587 4.785 10.133 10.667 10.133zm0-17.733c4.412 0 8 3.409 8 7.6s-3.588 7.6-8 7.6-8-3.409-8-7.6 3.588-7.6 8-7.6z"/>
    </symbol>
    <symbol id="icon-menu" viewBox="0 0 32 32">
      <path d="M6.4 11.734V9.6h19.2v2.134H6.4zm0 5.332h19.2v-2.133H6.4v2.133zm0 5.334h19.2v-2.134H6.4V22.4z"/>
    </symbol>
    <symbol id="icon-arrow-right" viewBox="0 0 16 32">
<path  d="M16 16c-0.016-0.596-0.219-1.107-0.643-1.567l-12.192-12.965c-0.36-0.375-0.784-0.579-1.301-0.579-1.050 0-1.865 0.886-1.865 2.027 0 0.545 0.204 1.056 0.564 1.448l10.97 11.636-10.97 11.636c-0.36 0.392-0.564 0.886-0.564 1.448 0 1.142 0.815 2.027 1.865 2.027 0.501 0 0.94-0.204 1.301-0.579l12.192-12.982c0.439-0.443 0.642-0.954 0.642-1.55z"></path>
</symbol>
    <symbol id="icon-arrow-left" viewBox="0 0 16 32">
<path  d="M0 16c0 0.596 0.204 1.107 0.642 1.55l12.192 12.982c0.345 0.375 0.784 0.579 1.301 0.579 1.034 0 1.865-0.886 1.865-2.027 0-0.562-0.219-1.056-0.564-1.448l-10.985-11.636 10.985-11.636c0.345-0.392 0.564-0.903 0.564-1.448 0-1.141-0.831-2.027-1.865-2.027-0.517 0-0.956 0.204-1.301 0.579l-12.192 12.965c-0.439 0.46-0.642 0.971-0.642 1.567z"></path>
</symbol>
    <symbol id="icon-mobile-menu-1" viewBox="0 0 32 32">
<path d="M31.439 3.166l-3.166-3.166-12.554 12.552-12.552-12.552-3.166 3.166 12.552 12.552-12.552 12.554 3.166 3.166 12.552-12.554 12.554 12.554 3.166-3.166-12.554-12.554 12.554-12.552z"></path>
</symbol>
<symbol id="icon-home" viewBox="0 0 32 32">
<path fill="none" stroke="#f4f4f4" style="stroke: var(--color1, #f4f4f4)" stroke-linejoin="round" stroke-linecap="round" stroke-miterlimit="4" stroke-width="1.7778" d="M4 12l12-9.333 12 9.333v14.667c0 0.707-0.281 1.386-0.781 1.886s-1.178 0.781-1.886 0.781h-18.667c-0.707 0-1.386-0.281-1.886-0.781s-0.781-1.178-0.781-1.886v-14.667z"></path>
<path fill="none" stroke="#f4f4f4" style="stroke: var(--color1, #f4f4f4)" stroke-linejoin="round" stroke-linecap="round" stroke-miterlimit="4" stroke-width="1.7778" d="M12 29.333v-13.333h8v13.333"></path>
</symbol>
<symbol id="icon-heart" viewBox="0 0 36 32">
<path fill="none" stroke="#f4f4f4" style="stroke: var(--color1, #f4f4f4)" stroke-linejoin="round" stroke-linecap="round" stroke-miterlimit="4" stroke-width="2" d="M31.261 4.915c-0.766-0.766-1.676-1.375-2.677-1.789s-2.074-0.628-3.158-0.628c-1.084 0-2.157 0.214-3.158 0.628s-1.911 1.023-2.677 1.789l-1.59 1.59-1.59-1.59c-1.548-1.548-3.646-2.417-5.835-2.417s-4.287 0.869-5.835 2.417c-1.548 1.548-2.417 3.646-2.417 5.835s0.869 4.287 2.417 5.835l13.26 13.26 13.26-13.26c0.766-0.766 1.374-1.676 1.789-2.677s0.628-2.074 0.628-3.158-0.213-2.157-0.628-3.158c-0.415-1.001-1.023-1.911-1.789-2.677v0z"></path>
</symbol>
<symbol id="icon-book" viewBox="0 0 32 32">
<path fill="none" stroke="#f4f4f4" style="stroke: var(--color1, #f4f4f4)" stroke-linejoin="round" stroke-linecap="round" stroke-miterlimit="4" stroke-width="1.7778" d="M2.667 4h8c1.415 0 2.771 0.562 3.771 1.562s1.562 2.357 1.562 3.771v18.667c0-1.061-0.421-2.078-1.172-2.828s-1.768-1.172-2.828-1.172h-9.333v-20z"></path>
<path fill="none" stroke="#f4f4f4" style="stroke: var(--color1, #f4f4f4)" stroke-linejoin="round" stroke-linecap="round" stroke-miterlimit="4" stroke-width="1.7778" d="M29.333 4h-8c-1.414 0-2.771 0.562-3.771 1.562s-1.562 2.357-1.562 3.771v18.667c0-1.061 0.421-2.078 1.172-2.828s1.768-1.172 2.828-1.172h9.333v-20z"></path>
</symbol>
<symbol id="icon-arrow" viewBox="0 0 18 32">
<path fill="none" stroke="#ffffff" style="stroke: var(--color1, #ffffff)" stroke-linejoin="round" stroke-linecap="round" stroke-miterlimit="4" stroke-width="4.5714" d="M2.286 29.714l13.714-13.714-13.714-13.714"></path>
</symbol>
<symbol id="icon-arrow-with-circle-up" viewBox="0 0 20 20">
<path d="M10 0.4c-5.303 0-9.601 4.298-9.601 9.6 0 5.303 4.298 9.601 9.601 9.601 5.301 0 9.6-4.298 9.6-9.601s-4.299-9.6-9.6-9.6zM9.999 17.6c-4.197 0-7.6-3.402-7.6-7.6s3.402-7.6 7.6-7.6 7.601 3.403 7.601 7.6-3.404 7.6-7.601 7.6zM10 5.5l4.5 4.5h-2.5v4h-4v-4h-2.5l4.5-4.5z"></path>
</symbol>
<symbol id="icon-carbon_location-filled" viewBox="0 0 32 32">
<path fill="#fff" style="fill: var(--color1, #fff)" d="M16 2c-2.916 0.003-5.712 1.163-7.774 3.226s-3.222 4.858-3.226 7.774c-0.003 2.383 0.775 4.702 2.216 6.6 0 0 0.3 0.395 0.349 0.452l8.435 9.948 8.439-9.953c0.044-0.053 0.345-0.447 0.345-0.447l0.001-0.003c1.44-1.897 2.218-4.215 2.215-6.597-0.003-2.916-1.163-5.712-3.226-7.774s-4.858-3.222-7.774-3.226zM16 17c-0.791 0-1.565-0.235-2.222-0.674s-1.171-1.064-1.473-1.795c-0.303-0.731-0.382-1.535-0.228-2.311s0.535-1.489 1.095-2.048c0.559-0.559 1.272-0.94 2.048-1.095s1.58-0.075 2.311 0.228c0.731 0.303 1.356 0.815 1.795 1.473s0.674 1.431 0.674 2.222c-0.001 1.060-0.423 2.077-1.173 2.827s-1.767 1.172-2.827 1.173z"></path>
</symbol>
<symbol id="icon-icons8--1" viewBox="0 0 32 32">
<path fill="#00dd73" style="fill: var(--color1, #00dd73)" d="M28.779 6.39c-0.277 0.008-0.54 0.124-0.733 0.323l-16.312 16.313-6.713-6.713c-0.098-0.102-0.216-0.184-0.346-0.24s-0.27-0.086-0.412-0.088c-0.142-0.001-0.283 0.025-0.414 0.079s-0.251 0.133-0.351 0.233c-0.1 0.1-0.18 0.22-0.233 0.351s-0.081 0.272-0.079 0.414c0.001 0.142 0.031 0.282 0.087 0.412s0.138 0.248 0.24 0.346l7.467 7.467c0.2 0.2 0.471 0.312 0.754 0.312s0.554-0.112 0.754-0.312l17.067-17.067c0.154-0.15 0.259-0.343 0.302-0.553s0.021-0.429-0.063-0.627c-0.084-0.198-0.225-0.366-0.406-0.482s-0.393-0.175-0.608-0.168z"></path>
</symbol>
<symbol id="icon-Vector" viewBox="0 0 37 32">
<path stroke="#4440f7" style="stroke: var(--color1, #4440f7)" stroke-linejoin="round" stroke-linecap="round" stroke-miterlimit="4" stroke-width="2.2857" d="M10.666 2.286c-4.207 0-7.619 3.377-7.619 7.543 0 3.363 1.333 11.345 14.458 19.413 0.235 0.143 0.505 0.219 0.78 0.219s0.545-0.076 0.78-0.219c13.125-8.069 14.458-16.050 14.458-19.413 0-4.166-3.412-7.543-7.619-7.543s-7.619 4.571-7.619 4.571-3.412-4.571-7.619-4.571z"></path>
</symbol>
<symbol id="icon-car" viewBox="0 0 32 32">
<path d="M21.98 19.256h-8.362c-0.888 0-1.724-0.473-2.181-1.235l-0.908-1.514c-0.142-0.237-0.065-0.545 0.172-0.687s0.545-0.065 0.687 0.172l0.908 1.514c0.277 0.461 0.783 0.748 1.321 0.748h8.362c0.277 0 0.501 0.224 0.501 0.501s-0.224 0.501-0.501 0.501z"></path>
<path d="M0.438 20.263v-1.507c0-3.039 2.472-5.511 5.511-5.511h2.768c0.776-0.61 3.937-3.006 5.748-3.006h3.382c0.689 0 1.372 0.104 2.029 0.31 0.013 0.004 0.025 0.008 0.038 0.013l4.615 1.858c0.693 0.215 1.413 0.323 2.139 0.323h1.657c0.024-0.049 0.055-0.095 0.096-0.135l0.487-0.487c-0.538-0.23-0.915-0.764-0.915-1.385v-0.498c0-0.277 0.224-0.501 0.501-0.501h3.006c0.277 0 0.501 0.224 0.501 0.501v0.498c0 0.83-0.675 1.506-1.506 1.506h-0.291l-0.501 0.501h0.419c0.76 0 1.378 0.618 1.378 1.378v4.133c0 1.159-0.833 2.135-2.122 2.487-0.633 0.918-1.691 1.521-2.888 1.521-0.953 0-1.818-0.383-2.451-1.002h-15.638c-0.633 0.619-1.498 1.002-2.451 1.002s-1.818-0.383-2.451-1.002h-2.997c-0.277 0-0.501-0.224-0.501-0.501 0-0.255 0.191-0.466 0.438-0.497zM30.998 10.74h-2.004c0.002 0.277 0.227 0.501 0.504 0.501h0.996c0.277 0 0.502-0.224 0.504-0.501zM9.688 13.762c0.224 0.157 0.39 0.323 0.505 0.46l9.455-0.906c-0.442-0.793-1.361-2.075-2.677-2.075h-2.505c-1.183 0-3.527 1.58-4.777 2.521zM30.497 18.254v-4.133c0-0.207-0.169-0.376-0.376-0.376h-3.454c-0.834 0-1.66-0.126-2.456-0.375-0.013-0.004-0.025-0.008-0.038-0.013l-4.599-1.852c0.125 0.134 0.248 0.277 0.366 0.432 0.614 0.799 0.927 1.592 0.94 1.626 0.057 0.146 0.042 0.311-0.040 0.445s-0.223 0.221-0.379 0.236l-10.458 1.002c-0.018 0.002-0.035 0.003-0.052 0.003-0.184 0-0.349-0.094-0.435-0.26-0.035-0.059-0.466-0.742-1.565-0.742h-2.004c-2.486 0-4.509 2.023-4.509 4.509v1.503h1.341c-0.217-0.456-0.339-0.965-0.339-1.503 0-1.934 1.573-3.507 3.507-3.507s3.507 1.573 3.507 3.507c0 0.538-0.122 1.047-0.339 1.503h14.204c-0.217-0.456-0.339-0.965-0.339-1.503 0-1.934 1.573-3.507 3.507-3.507s3.507 1.573 3.507 3.507c0 0.207-0.019 0.41-0.054 0.608 0.353-0.288 0.555-0.675 0.555-1.109zM28.994 18.755c0-1.381-1.124-2.505-2.505-2.505s-2.505 1.124-2.505 2.505 1.124 2.505 2.505 2.505 2.505-1.124 2.505-2.505zM5.949 21.26c1.381 0 2.505-1.124 2.505-2.505s-1.124-2.505-2.505-2.505-2.505 1.124-2.505 2.505 1.124 2.505 2.505 2.505z"></path>
<path d="M24.986 18.254c0.277 0 0.501 0.224 0.501 0.501 0 0.552 0.45 1.002 1.002 1.002s1.002-0.45 1.002-1.002-0.45-1.002-1.002-1.002c-0.277 0-0.501-0.224-0.501-0.501s0.224-0.501 0.501-0.501c1.105 0 2.004 0.899 2.004 2.004s-0.899 2.004-2.004 2.004-2.004-0.899-2.004-2.004c0-0.277 0.224-0.501 0.501-0.501z"></path>
<path d="M4.446 18.254c0.277 0 0.501 0.224 0.501 0.501 0 0.552 0.449 1.002 1.002 1.002s1.002-0.45 1.002-1.002-0.45-1.002-1.002-1.002c-0.277 0-0.501-0.224-0.501-0.501s0.224-0.501 0.501-0.501c1.105 0 2.004 0.899 2.004 2.004s-0.899 2.004-2.004 2.004-2.004-0.899-2.004-2.004c0-0.277 0.224-0.501 0.501-0.501z"></path>
</symbol>
  </defs>
</svg>
